<mxfile host="app.diagrams.net" modified="2023-12-02T13:53:45.168Z" agent="Mozilla/5.0 (Windows NT 10.0; Win64; x64) AppleWebKit/537.36 (KHTML, like Gecko) Chrome/119.0.0.0 Safari/537.36" version="22.1.5" etag="AcbZ_6wV2QARB8bsahG4" type="github">
  <diagram name="第 1 页" id="mEhJfsL94hrtxoF4modr">
    <mxGraphModel>
      <root>
        <mxCell id="0" />
        <mxCell id="1" parent="0" />
      </root>
    </mxGraphModel>
  </diagram>
</mxfile>
